<svg width="154" height="179" viewBox="0 0 154 179" fill="none" xmlns="http://www.w3.org/2000/svg">
<path d="M76.6387 28.0049C104.529 28.0051 127.139 50.6148 127.139 78.5049C127.139 98.1228 115.951 115.127 99.6094 123.489L97.7227 119.96C112.807 112.273 123.139 96.5957 123.139 78.5049C123.139 52.8239 102.32 32.0051 76.6387 32.0049C50.9575 32.0049 30.1388 52.8237 30.1387 78.5049C30.1387 96.5786 40.4499 112.243 55.5107 119.938L53.7109 123.511C37.3452 115.157 26.1387 98.1402 26.1387 78.5049C26.1388 50.6146 48.7484 28.0049 76.6387 28.0049Z" fill="#2F1D12"/>
<line x1="53.9963" y1="121.3" x2="53.9963" y2="138.838" stroke="#2F1D12" stroke-width="4" stroke-linecap="round"/>
<line x1="2" y1="-2" x2="19.5378" y2="-2" transform="matrix(0 1 1 0 101.24 119.3)" stroke="#2F1D12" stroke-width="4" stroke-linecap="round"/>
<path d="M101.24 140.447V141.132C94.6025 143.901 85.8216 145.451 76.6807 145.451L75.79 145.446C66.9328 145.349 58.4703 143.798 52.0381 141.097V140.483L55.6787 138.869C69.369 142.904 83.9398 142.9 97.6396 138.85L101.24 140.447Z" fill="#2F1D12"/>
<path d="M153.277 40.5469L122.773 57.9404C114.898 40.3003 97.205 28.0051 76.6387 28.0049C56.0723 28.0049 38.3771 40.2994 30.502 57.9395L0 40.5469L76.6387 0L153.277 40.5469Z" fill="#2F1D12"/>
<line x1="9.753" y1="125.572" x2="8.89171" y2="41.4657" stroke="#2F1D12" stroke-width="4"/>
<path d="M16.75 139.565H5.0332L6.86133 125.514C6.86133 124.814 7.27922 124.143 8.02344 123.648C8.76774 123.153 9.77747 122.875 10.8301 122.875C11.8825 122.875 12.8915 123.153 13.6357 123.648C14.38 124.143 14.7988 124.814 14.7988 125.514L16.75 139.565Z" fill="#2F1D12"/>
<path d="M63.2653 169.143C74.7364 171.589 78.8269 171.508 90.2167 169.175" stroke="#2F1D12" stroke-width="4" stroke-linecap="round"/>
<path d="M99.21 139.536C99.21 139.036 99.7565 138.737 100.154 139.04C103.003 141.216 104.843 144.648 104.843 148.509L104.839 148.817C104.787 150.842 104.229 152.741 103.287 154.393C102.427 155.901 102.018 157.667 102.019 159.404L102.008 159.857C101.799 164.515 98.3929 168.444 93.7646 169.279L92.5146 169.503C91.8738 169.619 91.3489 170.062 91.0508 170.641L90.8994 170.925C90.1221 172.335 89.0265 173.619 87.6689 174.711L87.3945 174.926C86.0053 175.99 84.3824 176.839 82.6084 177.43C80.7162 178.06 78.6878 178.385 76.6396 178.385L76.2559 178.381C74.3383 178.343 72.4441 178.021 70.6699 177.43C68.896 176.839 67.2739 175.99 65.8848 174.926L65.6094 174.711C64.2518 173.62 63.1573 172.335 62.3799 170.925L62.2285 170.641C61.895 169.993 61.3063 169.495 60.5879 169.374L59.499 169.192C54.6946 168.383 51.1763 164.222 51.1758 159.35C51.1758 157.596 50.775 155.809 49.9238 154.275C48.976 152.567 48.4357 150.601 48.4355 148.509C48.4356 144.668 50.2554 141.253 53.0791 139.076C53.4654 138.778 54 139.068 54 139.556C54 139.811 54.1562 140.041 54.3945 140.132C54.4851 140.167 54.5763 140.201 54.667 140.235C55.5788 140.579 55.6811 142.048 54.9668 142.711C53.4101 144.155 52.4356 146.218 52.4355 148.509C52.4356 148.779 52.4491 149.045 52.4756 149.308C52.616 150.702 52.7448 152.149 52.8438 153.587C52.9161 153.604 52.9884 153.625 53.0596 153.653C58.737 155.896 67.7324 157.178 76.8057 157.309C85.5887 157.435 94.163 156.478 99.6338 154.442C99.8837 153.264 100.106 152.05 100.471 150.906C100.712 150.15 100.843 149.345 100.843 148.509C100.843 146.131 99.7913 143.998 98.1289 142.549C97.4492 141.956 97.5372 140.606 98.3818 140.289L98.7949 140.134C99.0443 140.041 99.21 139.803 99.21 139.536ZM68.4053 170.69C67.2973 170.503 66.6147 171.669 67.4902 172.373C68.6408 173.299 70.0396 174.058 71.6182 174.584C73.1966 175.11 74.9048 175.385 76.6396 175.385C78.3742 175.385 80.082 175.11 81.6602 174.584C83.2388 174.058 84.6385 173.299 85.7891 172.373C86.5758 171.741 85.9613 170.683 84.9678 170.863L81.7021 171.453L81.1768 171.541C78.5424 171.958 75.856 171.944 73.2236 171.501L68.4053 170.69ZM53.0283 156.841C53.0846 157.365 53.1974 157.86 53.3604 158.324C54.1313 160.516 55.6342 162.612 57.4609 164.049C57.8925 164.389 58.3539 164.695 58.8086 165.003C62.4007 167.436 69.312 169.084 77.249 169.084C77.4638 169.084 77.6783 169.08 77.8916 169.078C77.8982 169.077 77.9047 169.078 77.9111 169.079H77.9502C77.9562 169.078 77.9626 169.077 77.9688 169.077C84.6791 168.992 90.5932 167.731 94.292 165.825C95.3259 165.409 96.2542 164.761 97.001 163.935C97.4968 163.435 97.862 162.911 98.0801 162.369C98.4339 161.675 98.6842 160.913 98.8027 160.097L99.1396 157.777C93.197 159.633 84.9334 160.427 76.7627 160.309C68.054 160.184 59.1817 159.02 53.0283 156.841Z" fill="#2F1D12"/>
</svg>
